<?xml version="1.0" standalone="no"?>
<!DOCTYPE svg PUBLIC "-//W3C//DTD SVG 20010904//EN"
 "http://www.w3.org/TR/2001/REC-SVG-20010904/DTD/svg10.dtd">
<svg version="1.0" xmlns="http://www.w3.org/2000/svg"
 width="700.000000pt" height="700.000000pt" viewBox="0 0 700.000000 700.000000"
 preserveAspectRatio="xMidYMid meet">
<metadata>
Created by potrace 1.14, written by Peter Selinger 2001-2017
</metadata>
<g transform="translate(0.000000,700.000000) scale(0.100000,-0.100000)"
fill="#000000" stroke="none">
<path d="M3804 4937 c-81 -216 -155 -414 -165 -442 -9 -27 -45 -122 -79 -210
-34 -88 -67 -178 -74 -200 -7 -22 -29 -80 -49 -130 -42 -108 -727 -1936 -768
-2049 -16 -44 -28 -80 -26 -81 1 -1 58 -23 127 -48 69 -25 160 -59 202 -75
l76 -29 53 141 c28 77 58 155 65 171 7 17 35 93 63 170 29 77 56 149 61 160 5
11 25 65 45 120 20 55 42 116 50 135 8 19 42 109 75 200 33 91 65 174 70 185
5 11 32 83 60 160 28 77 62 167 75 200 13 33 42 110 64 170 94 257 152 411
161 430 5 11 59 155 120 320 61 165 115 309 120 320 22 49 231 617 228 620 -2
2 -23 10 -48 18 -25 8 -58 21 -75 27 -16 7 -43 18 -60 25 -16 7 -55 21 -85 30
-30 10 -74 26 -97 36 l-41 17 -148 -391z"/>
<path d="M1409 4124 l-624 -624 625 -625 624 -624 154 156 155 155 -467 466
c-256 257 -466 469 -466 472 0 3 210 215 467 472 l466 466 -155 156 -154 155
-625 -625z"/>
<path d="M4811 4593 l-153 -156 461 -461 c253 -253 464 -465 468 -469 4 -4
-204 -219 -462 -477 l-468 -468 155 -155 155 -155 624 624 624 624 -625 624
-625 625 -154 -156z"/>
</g>
</svg>
